<!-- Generator: Avocode 2.1.0 - http://avocode.com -->
<svg height="39" width="153" xmlns:xlink="http://www.w3.org/1999/xlink" xmlns="http://www.w3.org/2000/svg" viewBox="0 0 153 39">
    <path fill="#000000" fill-rule="evenodd" d="M 133.13 0.27 L 152.12 0.27 C 152.53 0.27 152.53 0.27 152.53 0.68 L 152.53 38.54 C 152.53 38.94 152.53 38.94 152.12 38.94 L 114.12 38.94 C 113.73 38.94 113.73 38.94 113.73 38.55 L 113.73 0.66 C 113.73 0.27 113.73 0.27 114.13 0.27 C 120.46 0.27 126.79 0.27 133.13 0.27 L 133.13 0.27 Z M 141.82 11.12 C 141.75 11.14 141.72 11.14 141.71 11.15 C 141.53 11.37 141.35 11.59 141.15 11.8 C 139.12 14.03 136.6 15.38 133.63 15.93 C 132.22 16.2 130.83 16.57 129.51 17.15 C 127.18 18.17 125.6 19.84 124.89 22.3 C 124.37 24.09 124.39 25.91 124.63 27.74 C 124.65 27.89 124.69 28.05 124.73 28.26 C 124.83 28.13 124.88 28.07 124.93 28.01 C 125.42 27.47 125.87 26.89 126.39 26.4 C 128.14 24.73 130.29 23.79 132.6 23.19 C 133.78 22.88 134.97 22.64 136.14 22.29 C 137.69 21.83 139.05 21.04 140.06 19.73 C 141.32 18.09 142.09 16.25 142.05 14.14 C 142.03 13.59 142.02 13.04 141.98 12.5 C 141.95 12.04 141.88 11.59 141.82 11.12 L 141.82 11.12 Z M 141.82 11.12" />
    <path fill="#000000" fill-rule="evenodd" d="M 52.88 26.69 C 50.38 28.32 47.8 28.41 45.18 28.05 C 41.73 27.58 39.91 25.34 40.02 21.82 C 40.06 20.57 40.18 19.31 40.13 18.05 C 40.04 15.36 41.54 13.74 43.72 12.6 C 45.57 11.62 47.6 11.69 49.6 11.79 C 50.59 11.84 51.6 12.03 52.53 12.35 C 55.24 13.28 56.78 15.39 56.81 18.25 C 56.86 21.8 56.88 25.35 56.81 28.9 C 56.76 31.16 55.62 32.83 53.52 33.7 C 49.99 35.18 46.42 34.99 42.89 33.68 C 41.14 33.02 40.17 31.26 40.39 29.36 C 41.46 29.36 42.54 29.34 43.62 29.39 C 43.79 29.39 43.95 29.68 44.12 29.84 C 44.48 30.17 44.79 30.67 45.22 30.82 C 47.02 31.41 48.87 31.52 50.71 31.03 C 52.27 30.62 52.84 29.87 52.88 28.27 C 52.89 27.82 52.88 27.36 52.88 26.69 L 52.88 26.69 Z M 52.85 20.53 L 52.85 20.53 C 52.85 19.76 52.85 18.99 52.85 18.21 C 52.85 16.98 52.18 16.14 51.14 15.65 C 49.43 14.84 47.67 14.83 45.9 15.56 C 44.69 16.06 44.04 16.98 43.97 18.25 C 43.9 19.53 43.89 20.83 43.97 22.11 C 44.04 23.43 44.65 24.11 45.94 24.48 C 48 25.08 49.95 24.58 51.89 23.91 C 52.58 23.67 52.95 23.38 52.87 22.59 C 52.8 21.91 52.85 21.22 52.85 20.53 L 52.85 20.53 Z M 52.85 20.53" />
    <path fill="#000000" fill-rule="evenodd" d="M 4.62 6.17 L 4.62 9.7 L 4.62 13.24 C 4.88 13.12 5.1 13.03 5.31 12.93 C 7.88 11.72 10.53 11.34 13.32 12.07 C 15.7 12.69 17.13 14.22 17.29 16.64 C 17.46 19.2 17.46 21.77 17.33 24.33 C 17.2 26.96 15.5 28.5 13.15 29.34 C 10.56 30.26 7.9 30.17 5.29 29.45 C 2.98 28.81 0.66 26.51 0.74 23.23 C 0.87 17.92 0.78 12.59 0.78 7.27 L 0.78 6.17 C 2.05 6.17 3.26 6.17 4.62 6.17 L 4.62 6.17 Z M 13.74 20.47 C 13.67 19.65 13.65 18.62 13.51 17.61 C 13.36 16.5 12.75 15.74 11.6 15.45 C 9.21 14.84 7.02 15.34 4.97 16.62 C 4.77 16.75 4.63 17.12 4.62 17.38 C 4.59 19.04 4.61 20.69 4.61 22.35 C 4.62 25.12 5.6 26.27 8.35 26.57 C 8.99 26.64 9.67 26.61 10.31 26.49 C 12.56 26.08 13.34 25.25 13.6 22.99 C 13.69 22.23 13.69 21.45 13.74 20.47 L 13.74 20.47 Z M 13.74 20.47" />
    <path fill="#000000" fill-rule="evenodd" d="M 37.26 22 L 24.37 22 C 23.65 24.35 24.95 26.19 27.62 26.58 C 29.06 26.79 30.47 26.62 31.83 26.07 C 32.87 25.65 33.28 24.77 33.51 23.72 C 34.63 23.72 35.72 23.72 36.8 23.73 C 36.91 23.73 37.02 23.77 37.18 23.8 C 37.24 25.45 36.58 26.76 35.42 27.83 C 34.23 28.92 32.81 29.58 31.2 29.77 C 28.45 30.11 25.72 30.13 23.22 28.63 C 21.58 27.64 20.57 26.17 20.45 24.32 C 20.28 22.02 20.28 19.69 20.46 17.39 C 20.68 14.64 22.49 13.03 24.99 12.25 C 27.52 11.46 30.12 11.47 32.67 12.29 C 35.72 13.27 37.08 15.05 37.26 18.27 C 37.32 19.47 37.26 20.67 37.26 22 L 37.26 22 Z M 24.23 19.37 C 27.17 19.37 30.06 19.37 32.94 19.34 C 33.12 19.34 33.43 19.06 33.45 18.87 C 33.61 17.48 32.72 16.05 31.42 15.52 C 30.14 15.01 28.81 14.88 27.46 15.13 C 25.01 15.58 24.02 16.85 24.23 19.37 L 24.23 19.37 Z M 24.23 19.37" />
    <path fill="#000000" fill-rule="evenodd" d="M 83.38 29.63 L 79.58 29.63 C 79.58 25.33 79.35 21.06 79.66 16.82 C 79.86 14.07 82.13 12.69 84.67 12.05 C 86.6 11.56 88.59 11.61 90.54 12.01 C 93.03 12.51 95.96 14.7 95.85 18.45 C 95.76 21.88 95.83 25.32 95.83 28.75 L 95.83 29.65 L 91.91 29.65 C 91.91 29.36 91.91 29.06 91.91 28.75 C 91.9 25.38 91.85 22 91.9 18.62 C 91.92 17.05 91.18 16.06 89.83 15.5 C 88.03 14.75 86.21 14.85 84.58 15.92 C 84.06 16.27 83.76 17.03 83.49 17.66 C 83.32 18.06 83.38 18.56 83.38 19.02 C 83.37 22.22 83.38 25.43 83.38 28.63 L 83.38 29.63 L 83.38 29.63 Z M 83.38 29.63" />
    <path fill="#000000" fill-rule="evenodd" d="M 59.99 12.02 L 63.9 12.02 L 63.9 17.79 L 63.9 22.69 C 63.9 25.01 65.17 26.39 67.52 26.6 C 67.97 26.63 68.44 26.66 68.89 26.58 C 71.72 26.07 72.44 25.22 72.44 22.58 C 72.43 19.29 72.43 16 72.44 12.7 C 72.44 12.51 72.46 12.31 72.47 12.06 L 76.33 12.06 C 76.33 12.38 76.33 12.69 76.33 13 C 76.31 16.43 76.28 19.87 76.27 23.3 C 76.26 26.44 74.66 28.64 71.63 29.49 C 69.39 30.12 67.09 30.13 64.84 29.54 C 61.73 28.72 59.95 26.34 59.95 23.12 C 59.94 19.72 59.94 16.31 59.95 12.9 C 59.95 12.62 59.97 12.34 59.99 12.02 L 59.99 12.02 Z M 59.99 12.02" />
</svg>