<!-- Generator: Avocode 2.1.0 - http://avocode.com -->
<svg height="27" width="141" xmlns:xlink="http://www.w3.org/1999/xlink" xmlns="http://www.w3.org/2000/svg" viewBox="0 0 141 27">
    <path fill="#000000" fill-rule="evenodd" d="M 33.83 11.62 L 35.71 11.62 L 35.71 20.95 L 38.89 20.95 L 38.89 8.83 L 33.83 8.83 L 33.83 11.62 L 33.83 11.62 Z M 41.05 14.89 C 41.05 18.76 43.69 21.29 47.34 21.29 C 48.4 21.29 49.56 21.13 50.67 20.39 L 50.67 16.95 C 50.04 17.59 49.03 18.26 47.75 18.26 C 45.78 18.26 44.6 16.83 44.6 14.99 C 44.6 13 45.85 11.51 47.75 11.51 C 49.07 11.51 50.04 12.24 50.67 12.97 L 50.67 9.45 C 49.63 8.76 48.38 8.48 47.29 8.48 C 43.95 8.48 41.05 10.84 41.05 14.89 L 41.05 14.89 Z M 65.61 13.55 L 63.8 13.55 L 63.8 11.74 L 69.44 11.74 L 69.44 8.83 L 60.35 8.83 L 60.35 20.95 L 65.61 20.95 C 66.51 20.95 70.45 20.98 70.45 17.19 C 70.45 13.54 66.54 13.55 65.61 13.55 L 65.61 13.55 Z M 65.27 18.52 L 63.8 18.52 L 63.8 15.98 L 65.27 15.98 C 66.36 15.98 67 16.29 67 17.24 C 67 18.21 66.35 18.52 65.27 18.52 L 65.27 18.52 Z M 75.55 16.1 L 75.55 8.83 L 72.22 8.83 L 72.22 20.94 L 75.6 20.94 L 80.37 13.68 L 80.37 20.94 L 83.69 20.94 L 83.69 8.83 L 80.32 8.83 L 75.55 16.1 L 75.55 16.1 Z M 85.1 11.74 L 87.81 11.74 L 87.81 20.95 L 91.26 20.95 L 91.26 11.74 L 93.97 11.74 L 93.97 8.83 L 85.1 8.83 L 85.1 11.74 L 85.1 11.74 Z M 100.57 8.83 L 95.38 8.83 L 95.38 20.95 L 98.83 20.95 L 98.83 16.95 L 100.57 16.95 C 104.05 16.95 105.05 14.56 105.05 12.88 C 105.05 11.22 104.07 8.83 100.57 8.83 L 100.57 8.83 Z M 99.81 14.28 L 98.83 14.28 L 98.83 11.5 L 99.81 11.5 C 101.29 11.5 101.5 12.27 101.5 12.88 C 101.5 13.4 101.34 14.28 99.81 14.28 L 99.81 14.28 Z M 109.8 16.1 L 109.8 8.83 L 106.48 8.83 L 106.48 20.94 L 109.85 20.94 L 114.62 13.68 L 114.62 20.94 L 117.95 20.94 L 117.95 8.83 L 114.57 8.83 L 109.8 16.1 L 109.8 16.1 Z M 131.19 8.83 L 127.15 8.83 L 123.43 13.92 L 123.43 8.83 L 119.98 8.83 L 119.99 20.95 L 123.43 20.95 L 123.43 15.73 L 127 20.95 L 131.32 20.95 L 126.51 14.7 L 131.19 8.83 L 131.19 8.83 Z M 137.51 11.51 C 138.84 11.51 139.8 12.24 140.44 12.97 L 140.44 9.45 C 139.4 8.76 138.15 8.48 137.06 8.48 C 133.72 8.48 130.81 10.84 130.81 14.89 C 130.81 18.76 133.45 21.29 137.11 21.29 C 138.17 21.29 139.33 21.13 140.44 20.39 L 140.44 16.95 C 139.8 17.59 138.8 18.26 137.51 18.26 C 135.55 18.26 134.37 16.83 134.37 14.99 C 134.37 13 135.62 11.51 137.51 11.51 L 137.51 11.51 Z M 55.48 12.97 C 54.36 12.97 53.46 13.86 53.46 14.95 C 53.46 16.05 54.36 16.93 55.48 16.93 C 56.59 16.93 57.49 16.04 57.49 14.95 C 57.49 13.86 56.59 12.97 55.48 12.97 L 55.48 12.97 Z M 55.48 12.97" />
    <path fill="#000000" fill-rule="evenodd" d="M 14.13 0.35 C 13.12 0.35 12.14 0.46 11.19 0.67 L 11.19 13.68 C 11.19 15.27 12.51 16.57 14.13 16.57 C 15.75 16.57 17.07 15.27 17.07 13.68 C 17.07 12.15 15.86 10.89 14.33 10.79 L 14.33 8.47 C 17.16 8.57 19.43 10.87 19.43 13.68 C 19.43 16.55 17.05 18.89 14.13 18.89 C 11.22 18.89 8.84 16.55 8.84 13.68 L 8.84 1.4 C 8.5 1.54 8.17 1.7 7.85 1.86 L 7.85 13.68 C 7.85 17.08 10.67 19.85 14.13 19.85 C 17.59 19.85 20.41 17.08 20.41 13.68 C 20.41 10.34 17.7 7.61 14.33 7.51 L 14.33 5.19 C 18.99 5.29 22.76 9.07 22.76 13.68 C 22.76 18.35 18.89 22.17 14.13 22.17 C 9.38 22.17 5.5 18.35 5.5 13.68 L 5.5 3.4 C 2.5 5.84 0.58 9.53 0.58 13.67 C 0.58 21.02 6.65 26.99 14.12 26.99 C 21.61 26.99 27.67 21.02 27.67 13.67 C 27.67 6.31 21.61 0.35 14.13 0.35 L 14.13 0.35 Z M 14.13 0.35" />
</svg>