<!-- Generator: Avocode 2.1.0 - http://avocode.com -->
<svg height="51" width="136" xmlns:xlink="http://www.w3.org/1999/xlink" xmlns="http://www.w3.org/2000/svg" viewBox="0 0 136 51">
    <path fill="#000000" fill-rule="evenodd" d="M 87.73 26 C 87.13 26.38 86.57 27.04 86.04 27.98 L 85.96 27.98 L 85.84 25.68 L 84.85 25.68 L 84.85 38.48 L 86.02 38.48 L 86.02 31.41 C 86.02 30 86.37 28.83 87.07 27.9 C 87.76 26.97 88.66 26.51 89.75 26.51 C 90.33 26.51 90.88 26.58 91.41 26.71 L 91.64 25.59 C 91.02 25.48 90.43 25.43 89.89 25.43 C 89.04 25.43 88.32 25.62 87.73 26 L 87.73 26 Z M 96.31 36.97 C 95.97 36.5 95.8 35.77 95.8 34.79 L 95.8 26.69 L 99.55 26.69 L 99.55 25.68 L 95.8 25.68 L 95.8 22.58 L 95.2 22.58 L 94.61 25.47 L 92.71 26.01 L 92.71 26.69 L 94.61 26.69 L 94.61 34.96 C 94.61 36.25 94.88 37.2 95.41 37.81 C 95.95 38.41 96.79 38.72 97.92 38.72 C 98.65 38.72 99.31 38.62 99.87 38.43 L 99.87 37.49 C 99.32 37.62 98.68 37.68 97.94 37.68 C 97.2 37.68 96.66 37.44 96.31 36.97 L 96.31 36.97 Z M 77.73 25.45 C 76.67 25.45 75.6 25.65 74.52 26.05 L 74.94 27.02 C 75.88 26.65 76.79 26.47 77.68 26.47 C 78.78 26.47 79.58 26.78 80.07 27.4 C 80.57 28.02 80.82 28.93 80.82 30.15 L 80.82 31 L 78.38 31.07 C 76.41 31.11 74.9 31.48 73.86 32.17 C 72.82 32.86 72.3 33.83 72.3 35.08 C 72.3 36.22 72.65 37.11 73.35 37.75 C 74.05 38.39 75.03 38.72 76.28 38.72 C 77.21 38.72 78.01 38.55 78.69 38.2 C 79.37 37.86 80.03 37.28 80.67 36.46 L 80.77 36.46 L 81.06 38.48 L 81.92 38.48 L 81.92 29.97 C 81.92 28.42 81.57 27.28 80.88 26.55 C 80.19 25.82 79.14 25.45 77.73 25.45 L 77.73 25.45 Z M 80.77 33.23 C 80.77 34.62 80.38 35.7 79.59 36.48 C 78.8 37.27 77.72 37.66 76.35 37.66 C 75.46 37.66 74.76 37.43 74.27 36.99 C 73.78 36.55 73.54 35.93 73.54 35.12 C 73.54 34.12 73.92 33.38 74.69 32.9 C 75.45 32.43 76.73 32.15 78.53 32.06 L 80.77 31.97 L 80.77 33.23 L 80.77 33.23 Z M 107.7 25.43 C 105.57 25.43 104.09 26.1 103.26 27.43 L 103.19 27.43 L 102.97 25.68 L 101.98 25.68 L 101.98 38.48 L 103.14 38.48 L 103.14 31.41 C 103.14 29.68 103.5 28.42 104.21 27.65 C 104.92 26.88 106.04 26.49 107.57 26.49 C 108.71 26.49 109.55 26.78 110.09 27.37 C 110.63 27.95 110.9 28.89 110.9 30.18 L 110.9 38.48 L 112.06 38.48 L 112.06 30.11 C 112.06 26.99 110.61 25.43 107.7 25.43 L 107.7 25.43 Z M 133.05 25.43 C 132.2 25.43 131.48 25.62 130.88 26 C 130.28 26.38 129.72 27.04 129.2 27.98 L 129.11 27.98 L 129 25.68 L 128.01 25.68 L 128.01 38.48 L 129.17 38.48 L 129.17 31.41 C 129.17 30 129.52 28.83 130.22 27.9 C 130.92 26.97 131.82 26.51 132.91 26.51 C 133.48 26.51 134.54 26.58 135.08 26.71 L 135.3 25.59 C 134.68 25.48 133.59 25.43 133.05 25.43 L 133.05 25.43 Z M 120.2 25.43 C 118.5 25.43 117.14 26.04 116.14 27.27 C 115.13 28.5 114.63 30.14 114.63 32.18 C 114.63 34.24 115.15 35.85 116.19 37 C 117.23 38.14 118.68 38.72 120.54 38.72 C 121.28 38.72 121.96 38.66 122.57 38.55 C 123.18 38.43 123.85 38.22 124.57 37.9 L 124.57 36.84 C 123.72 37.18 123.02 37.4 122.47 37.5 C 121.91 37.6 121.27 37.65 120.54 37.65 C 119.04 37.65 117.89 37.19 117.08 36.26 C 116.28 35.34 115.87 33.99 115.86 32.24 L 125.08 32.24 L 125.08 31.29 C 125.08 29.49 124.64 28.06 123.77 27.01 C 122.9 25.96 121.71 25.43 120.2 25.43 L 120.2 25.43 Z M 115.92 31.2 C 116.05 29.67 116.49 28.5 117.23 27.68 C 117.98 26.87 118.97 26.47 120.2 26.47 C 121.34 26.47 122.23 26.88 122.88 27.72 C 123.52 28.56 123.84 29.71 123.84 31.2 L 115.92 31.2 L 115.92 31.2 Z M 115.92 31.2" />
    <path fill="#000000" fill-rule="evenodd" d="M 72.46 26.2 C 72.46 27.86 71.89 29.14 70.76 30.02 C 69.63 30.91 68.03 31.35 65.95 31.35 L 63.29 31.35 L 63.29 38.47 L 62.09 38.47 L 62.09 21.25 L 66.31 21.25 C 70.41 21.25 72.46 22.9 72.46 26.2 L 72.46 26.2 Z M 63.29 30.32 L 65.66 30.32 C 67.6 30.32 69 30 69.87 29.36 C 70.73 28.72 71.16 27.68 71.16 26.25 C 71.16 24.92 70.75 23.93 69.94 23.3 C 69.12 22.65 67.85 22.34 66.14 22.34 L 63.29 22.34 L 63.29 30.32 L 63.29 30.32 Z M 63.29 30.32" />
    <path fill="#010202" fill-rule="evenodd" d="M 90.44 13.68 C 90.64 13.61 90.75 13.55 90.75 13.4 C 90.75 12.98 90.27 12.5 89.71 12.5 C 89.29 12.5 88.5 12.82 88.5 13.96 C 88.5 14.14 88.52 14.32 88.53 14.51 L 90.44 13.68 L 90.44 13.68 Z M 91.93 16.34 L 91.43 16.81 C 91.31 16.87 91.2 16.95 91.08 17 C 90.74 17.16 90.38 17.2 90.06 17.2 C 89.73 17.2 89.2 17.18 88.67 16.79 C 87.92 16.27 87.59 15.36 87.59 14.57 C 87.59 12.95 88.92 12.15 90 12.15 C 90.38 12.15 90.77 12.24 91.08 12.44 C 91.61 12.79 91.74 13.24 91.82 13.48 L 89.35 14.48 L 88.54 14.54 C 88.8 15.88 89.7 16.65 90.7 16.65 C 91.2 16.65 91.57 16.49 91.91 16.32 C 91.91 16.32 91.98 16.29 91.93 16.34 L 91.93 16.34 Z M 91.93 16.34" />
    <path fill="#010202" fill-rule="evenodd" d="M 86.77 16.25 C 86.77 16.66 86.84 16.73 87.19 16.76 C 87.37 16.78 87.54 16.79 87.72 16.81 L 87.34 17.04 L 85.48 17.04 C 85.72 16.73 85.77 16.69 85.77 16.48 L 85.77 16.25 L 85.76 10.01 L 84.95 10.01 L 85.73 9.63 L 87.24 9.63 C 86.91 9.82 86.81 9.93 86.77 10.3 L 86.77 16.25 L 86.77 16.25 Z M 86.77 16.25" />
    <path fill="#010202" fill-rule="evenodd" d="M 83.46 15.33 C 83.7 15.09 83.72 14.75 83.72 14.56 C 83.72 13.81 83.27 12.63 82.4 12.63 C 82.12 12.63 81.83 12.77 81.66 12.98 C 81.49 13.2 81.43 13.48 81.43 13.75 C 81.43 14.46 81.84 15.62 82.74 15.62 C 83.01 15.63 83.29 15.5 83.46 15.33 L 83.46 15.33 Z M 83.15 17.32 C 83.07 17.31 83.02 17.31 82.91 17.31 C 82.82 17.31 82.25 17.34 81.81 17.48 C 81.58 17.57 80.91 17.82 80.91 18.56 C 80.91 19.31 81.63 19.85 82.76 19.85 C 83.76 19.85 84.3 19.36 84.3 18.71 C 84.3 18.18 83.95 17.89 83.15 17.32 L 83.15 17.32 Z M 83.9 12.66 C 84.14 12.86 84.65 13.28 84.65 14.08 C 84.65 14.86 84.2 15.23 83.76 15.57 C 83.63 15.71 83.47 15.86 83.47 16.09 C 83.47 16.32 83.63 16.44 83.74 16.54 L 84.12 16.83 C 84.58 17.22 85 17.58 85 18.3 C 85 19.29 84.05 20.29 82.24 20.29 C 80.72 20.29 79.98 19.56 79.98 18.79 C 79.98 18.41 80.17 17.87 80.79 17.51 C 81.44 17.11 82.32 17.05 82.79 17.02 C 82.65 16.83 82.48 16.63 82.48 16.31 C 82.48 16.13 82.53 16.02 82.59 15.9 C 82.47 15.91 82.36 15.92 82.25 15.92 C 81.14 15.92 80.51 15.09 80.51 14.27 C 80.51 13.79 80.73 13.25 81.18 12.86 C 81.78 12.37 82.49 12.29 83.06 12.29 L 85.22 12.29 L 84.55 12.66 L 83.9 12.66 L 83.9 12.66 Z M 83.9 12.66" />
    <path fill="#010202" fill-rule="evenodd" d="M 78.7 16.33 C 78.95 15.99 79.01 15.57 79.01 15.16 C 79.01 14.24 78.57 12.47 77.27 12.47 C 76.92 12.47 76.58 12.61 76.33 12.83 C 75.92 13.2 75.85 13.66 75.85 14.11 C 75.85 15.15 76.36 16.86 77.63 16.86 C 78.04 16.86 78.46 16.66 78.7 16.33 M 77.39 17.18 C 75.72 17.18 74.83 15.88 74.83 14.7 C 74.83 13.32 75.95 12.15 77.55 12.15 C 79.09 12.15 80.06 13.36 80.06 14.63 C 80.06 15.87 79.1 17.18 77.39 17.18" />
    <path fill="#010202" fill-rule="evenodd" d="M 73.11 16.33 C 73.37 15.99 73.43 15.57 73.43 15.16 C 73.43 14.24 72.99 12.47 71.69 12.47 C 71.34 12.47 70.99 12.61 70.74 12.83 C 70.33 13.2 70.26 13.66 70.26 14.11 C 70.26 15.15 70.77 16.86 72.04 16.86 C 72.45 16.86 72.87 16.66 73.11 16.33 M 71.8 17.18 C 70.13 17.18 69.24 15.88 69.24 14.7 C 69.24 13.32 70.36 12.15 71.96 12.15 C 73.5 12.15 74.47 13.36 74.47 14.63 C 74.47 15.87 73.51 17.18 71.8 17.18" />
    <path fill="#010202" fill-rule="evenodd" d="M 68.57 16.81 L 67.16 17.14 C 66.59 17.23 66.08 17.31 65.54 17.31 C 62.82 17.31 61.79 15.31 61.79 13.74 C 61.79 11.83 63.26 10.06 65.76 10.06 C 66.3 10.06 66.81 10.14 67.27 10.26 C 68.01 10.47 68.36 10.73 68.57 10.88 L 67.76 11.65 L 67.41 11.73 L 67.66 11.34 C 67.32 11.01 66.71 10.41 65.55 10.41 C 63.99 10.41 62.82 11.59 62.82 13.32 C 62.82 15.17 64.16 16.91 66.31 16.91 C 66.94 16.91 67.26 16.78 67.56 16.66 L 67.56 15.08 L 66.07 15.16 L 66.86 14.73 L 68.95 14.73 L 68.69 14.98 C 68.62 15.04 68.61 15.06 68.59 15.14 C 68.58 15.23 68.57 15.51 68.57 15.61 L 68.57 16.81 L 68.57 16.81 Z M 68.57 16.81" />
    <path fill="#010202" fill-rule="evenodd" d="M 92.13 12.22 L 92.13 12.28 L 92.34 12.28 L 92.34 12.93 L 92.42 12.93 L 92.42 12.28 L 92.63 12.28 L 92.63 12.22 L 92.13 12.22 Z M 92.13 12.22" />
    <path fill="#010202" fill-rule="evenodd" d="M 93.29 12.93 L 93.29 12.28 L 93.29 12.28 L 93.09 12.93 L 93.03 12.93 L 92.83 12.28 L 92.83 12.28 L 92.83 12.93 L 92.76 12.93 L 92.76 12.22 L 92.88 12.22 L 93.06 12.79 L 93.06 12.79 L 93.24 12.22 L 93.37 12.22 L 93.37 12.93 L 93.29 12.93 Z M 93.29 12.93" />
    <path fill="#000000" fill-rule="evenodd" d="M 0.47 0.56 L 50.08 0.56 L 50.08 50.22 L 0.47 50.22 L 0.47 0.56 Z M 0.47 0.56" />
    <path fill="#ffffff" fill-rule="evenodd" d="M 13.01 50.21 C 12.7 49.42 12.54 48.56 12.54 47.65 C 12.54 42.86 16.88 41.23 18.36 40.69 C 21.19 39.75 24.85 39.6 25.48 39.6 C 26.14 39.6 26.47 39.6 27.03 39.65 C 32.15 43.33 34.4 45.16 34.4 48.61 C 34.4 49.16 34.34 49.7 34.22 50.21 L 38 50.21 C 38.62 48.85 38.95 47.42 38.95 45.98 C 38.95 41.28 36.24 39 33.26 36.48 L 30.81 34.58 C 30.07 33.97 29.06 33.15 29.06 31.67 C 29.06 30.19 30.07 29.25 30.95 28.34 C 33.77 26.13 36.62 23.76 36.62 18.76 C 36.62 13.61 33.36 10.9 31.81 9.59 L 36.02 9.59 L 40.37 7.15 L 26.41 7.15 C 22.76 7.15 18.14 7.72 14.28 10.9 C 11.37 13.39 9.97 16.85 9.97 19.99 C 9.97 25.25 14.03 30.6 21.19 30.6 C 21.87 30.6 22.61 30.53 23.37 30.47 C 23.02 31.27 22.69 31.96 22.69 33.1 C 22.69 35.18 23.75 36.48 24.72 37.71 C 21.66 37.93 15.97 38.24 11.81 40.83 C 7.8 43.21 6.57 46.63 6.57 49.09 C 6.57 49.47 6.6 49.84 6.66 50.21 L 13.01 50.21 L 13.01 50.21 Z M 24.38 28.72 C 18.56 28.72 15.91 21.2 15.91 16.67 C 15.91 14.89 16.26 13.08 17.41 11.66 C 18.51 10.26 20.39 9.4 22.15 9.4 C 27.76 9.4 30.65 17.01 30.65 21.86 C 30.65 23.1 30.56 25.25 28.97 26.8 C 27.9 27.91 26.07 28.72 24.38 28.72 L 24.38 28.72 Z M 24.38 28.72" />
</svg>