<!-- Generator: Avocode 2.1.0 - http://avocode.com -->
<svg height="43" width="107" xmlns:xlink="http://www.w3.org/1999/xlink" xmlns="http://www.w3.org/2000/svg" viewBox="0 0 107 43">
    <path fill="#000000" fill-rule="evenodd" d="M 36.37 12.39 L 33.3 12.39 C 33.05 12.39 32.9 12.59 32.9 12.74 L 32.9 22.24 L 27.2 22.24 L 27.2 12.74 C 27.2 12.49 27.1 12.39 26.86 12.39 L 23.78 12.39 C 23.54 12.39 23.39 12.54 23.39 12.74 L 23.39 36.9 C 23.39 37.15 23.49 37.3 23.73 37.3 L 26.86 37.3 C 27.05 37.3 27.2 37.15 27.2 36.9 L 27.2 25.37 L 32.9 25.37 L 32.9 36.9 C 32.9 37.15 33.05 37.3 33.3 37.3 L 36.37 37.3 C 36.62 37.3 36.72 37.1 36.72 36.9 L 36.72 12.74 C 36.72 12.54 36.57 12.39 36.37 12.39 L 36.37 12.39 Z M 106.12 34.02 C 106.07 33.87 106.02 33.82 105.88 33.82 C 105.63 33.82 104.29 34.36 102.36 34.36 C 98.59 34.36 96.76 30.74 96.76 24.97 C 96.76 19.9 98.29 14.88 100.87 14.88 C 101.56 14.88 102.41 15.08 103.74 16.32 C 103.89 16.47 103.99 16.52 104.14 16.52 C 104.29 16.52 104.44 16.42 104.58 16.17 L 105.92 13.98 C 106.02 13.83 106.07 13.68 106.07 13.53 C 106.07 13.34 105.87 13.19 105.58 13.04 C 103.54 11.99 102.16 11.8 100.97 11.8 C 96.31 11.8 92.69 17.36 92.69 26.06 C 92.69 33.57 96.16 37.89 101.12 37.89 C 103.2 37.89 105.43 36.9 106.32 36.25 C 106.52 36.1 106.57 35.9 106.52 35.71 L 106.12 34.02 L 106.12 34.02 Z M 84.98 23.63 L 90.93 12.74 C 91.03 12.59 90.98 12.39 90.78 12.39 L 87.86 12.39 C 87.01 12.39 86.71 12.69 86.42 13.34 L 81.96 22.63 C 81.71 23.18 81.46 23.53 81.21 23.68 L 81.21 12.74 C 81.21 12.54 81.12 12.39 80.92 12.39 L 77.7 12.39 C 77.55 12.39 77.4 12.54 77.4 12.74 L 77.4 36.95 C 77.4 37.1 77.5 37.3 77.7 37.3 L 80.92 37.3 C 81.12 37.3 81.21 37.15 81.21 36.95 L 81.21 24.47 C 81.36 24.57 81.46 24.72 81.56 24.92 L 87.21 36.55 C 87.51 37.15 87.95 37.3 88.6 37.3 L 91.77 37.3 C 91.97 37.3 92.02 37.1 91.92 36.95 L 84.98 23.63 L 84.98 23.63 Z M 56.59 34.17 L 55.99 34.17 C 55.25 34.17 55.05 33.87 55.05 33.27 L 55.05 12.74 C 55.05 12.49 54.95 12.39 54.75 12.39 L 44.84 12.39 C 44.6 12.39 44.45 12.54 44.45 12.74 L 44.45 14.53 C 44.45 20.55 44.1 28.3 40.93 34.17 L 39.84 34.17 C 39.54 34.17 39.44 34.32 39.44 34.56 L 39.44 41.82 C 39.44 42.07 39.64 42.17 39.79 42.17 L 42.17 42.17 C 42.71 42.17 42.91 41.77 42.91 41.42 L 42.91 37.3 L 53.52 37.3 L 53.52 41.82 C 53.52 42.02 53.66 42.17 53.86 42.17 L 56.39 42.17 C 56.69 42.17 56.98 41.92 56.98 41.42 L 56.98 34.56 C 56.98 34.32 56.83 34.17 56.59 34.17 L 56.59 34.17 Z M 51.24 34.17 L 44.05 34.17 C 46.58 29.84 47.57 24.97 47.92 19.01 C 48.01 17.71 48.06 16.37 48.06 15.53 L 51.23 15.53 L 51.23 34.17 L 51.24 34.17 Z M 66.7 11.8 C 61.35 11.8 58.97 18.56 58.97 25.91 C 58.97 33.42 62.34 37.89 67.29 37.89 C 69.72 37.89 71.85 36.95 72.94 36.25 C 73.14 36.15 73.19 36 73.14 35.81 L 72.74 34.12 C 72.69 33.92 72.59 33.82 72.35 33.82 C 72.15 33.82 70.71 34.36 68.68 34.36 C 64.86 34.36 63.08 31.03 63.08 26.66 L 63.08 25.48 C 63.08 25.48 65.01 25.71 66.15 25.71 L 73.39 25.71 L 73.39 23.63 C 73.39 15.92 70.66 11.8 66.7 11.8 L 66.7 11.8 Z M 66.15 22.58 C 65.01 22.58 63.23 22.78 63.23 22.78 C 63.23 22.78 63.23 22.04 63.33 21.24 C 63.77 17.02 64.81 14.88 66.55 14.88 C 68.14 14.88 69.12 17.07 69.37 20.89 C 69.42 21.69 69.42 22.58 69.42 22.58 L 66.15 22.58 L 66.15 22.58 Z M 66.15 22.58" />
    <path fill="#000000" fill-rule="evenodd" d="M 17.74 0.04 L 12.09 0.04 C 6.55 0.04 1.84 4.26 1.84 12.46 C 1.84 17.38 4.12 21.01 8.18 22.8 L 0.6 36.52 C 0.35 36.97 0.6 37.32 0.99 37.32 L 4.51 37.32 C 4.81 37.32 5.01 37.22 5.11 36.97 L 11.99 23.5 L 14.47 23.5 L 14.47 36.97 C 14.47 37.12 14.62 37.32 14.82 37.32 L 17.89 37.32 C 18.19 37.32 18.29 37.17 18.29 36.92 L 18.29 0.53 C 18.29 0.18 18.09 0.04 17.74 0.04 Z M 14.47 20.32 L 12.39 20.32 C 9.12 20.32 5.95 17.93 5.95 11.97 C 5.95 5.75 8.92 3.22 11.95 3.22 L 14.47 3.22 L 14.47 20.32 L 14.47 20.32 Z M 14.47 20.32" />
</svg>