<!-- Generator: Avocode 2.1.0 - http://avocode.com -->
<svg height="195" width="253" xmlns:xlink="http://www.w3.org/1999/xlink" xmlns="http://www.w3.org/2000/svg" viewBox="0 0 253 195">
    <path fill="#beff21" fill-rule="evenodd" d="M 120.96 152.86 L 120.12 148.21 C 120.08 147.98 120.02 147.79 119.95 147.65 C 119.88 147.51 119.68 147.39 119.36 147.3 C 118.85 147.11 118.08 146.92 117.03 146.73 C 115.99 146.55 114.85 146.45 113.6 146.45 C 110.69 146.45 108.6 147.04 107.35 148.21 C 106.11 149.39 105.48 150.8 105.48 152.44 C 105.48 153.57 105.72 154.48 106.21 155.19 C 106.7 155.9 107.34 156.49 108.15 156.99 C 108.96 157.48 109.9 157.89 110.96 158.22 C 112.03 158.55 113.14 158.85 114.3 159.14 C 115.64 159.47 116.98 159.85 118.32 160.3 C 119.66 160.75 120.86 161.34 121.93 162.1 C 122.99 162.85 123.86 163.82 124.53 165.02 C 125.2 166.22 125.54 167.73 125.54 169.57 C 125.54 171.54 125.15 173.21 124.39 174.57 C 123.63 175.93 122.62 177.01 121.37 177.81 C 120.12 178.61 118.69 179.19 117.07 179.54 C 115.45 179.89 113.81 180.07 112.14 180.07 C 110.8 180.07 109.47 179.98 108.15 179.82 C 106.83 179.65 105.62 179.44 104.51 179.19 C 103.4 178.93 102.45 178.67 101.66 178.41 C 100.88 178.15 100.32 177.93 100 177.74 L 100 169.07 L 103.54 169.28 L 104.37 173.94 C 104.42 174.17 104.48 174.36 104.55 174.5 C 104.62 174.64 104.81 174.76 105.13 174.85 C 105.64 175.04 106.53 175.3 107.81 175.63 C 109.08 175.96 110.69 176.12 112.63 176.12 C 115.17 176.12 117.21 175.63 118.74 174.64 C 120.26 173.65 121.02 172.1 121.02 169.99 C 121.02 168.86 120.79 167.92 120.33 167.17 C 119.87 166.42 119.24 165.8 118.46 165.3 C 117.67 164.81 116.77 164.4 115.75 164.07 C 114.73 163.74 113.67 163.44 112.56 163.15 C 111.17 162.83 109.79 162.46 108.43 162.06 C 107.07 161.66 105.84 161.1 104.75 160.37 C 103.67 159.64 102.78 158.7 102.08 157.55 C 101.39 156.4 101.04 154.88 101.04 153 C 101.04 151.08 101.41 149.45 102.15 148.11 C 102.89 146.77 103.87 145.69 105.1 144.87 C 106.32 144.04 107.74 143.45 109.33 143.07 C 110.93 142.69 112.58 142.5 114.3 142.5 C 116.7 142.5 118.84 142.75 120.71 143.24 C 122.59 143.74 123.84 144.13 124.49 144.41 L 124.49 153.08 L 120.96 152.86 Z M 132.4 194.16 L 132.4 190.99 L 135.32 190.57 C 135.83 190.47 136.14 190.34 136.26 190.18 C 136.37 190.02 136.43 189.67 136.43 189.16 L 136.43 148.99 C 136.43 148.19 136.13 147.7 135.53 147.51 L 131.5 146.17 L 132.06 143.21 L 139.97 143.21 L 140.52 147.44 L 140.66 147.51 C 142.28 146.29 144.19 145.15 146.38 144.09 C 148.58 143.03 150.93 142.5 153.43 142.5 C 157.36 142.5 160.5 143.87 162.87 146.59 C 165.22 149.32 166.4 153.71 166.4 159.77 C 166.4 166.21 165.33 171.01 163.18 174.18 C 161.03 177.35 158.17 179.24 154.61 179.86 C 153.73 180 152.8 180.07 151.83 180.07 C 149.75 180.07 147.82 179.73 146.04 179.04 C 144.26 178.36 142.65 177.32 141.22 175.91 L 141.08 175.98 L 141.08 189.16 C 141.08 189.72 141.13 190.09 141.25 190.25 C 141.36 190.41 141.68 190.52 142.19 190.57 L 148.43 191.06 L 148.43 194.16 L 132.4 194.16 Z M 141.08 170.77 C 142.37 172.13 143.93 173.34 145.76 174.39 C 147.59 175.45 149.47 175.98 151.42 175.98 C 153.36 175.98 154.99 175.62 156.31 174.89 C 157.63 174.16 158.69 173.13 159.5 171.79 C 160.31 170.45 160.9 168.8 161.27 166.85 C 161.64 164.9 161.82 162.73 161.82 160.33 C 161.82 157.7 161.58 155.51 161.09 153.75 C 160.61 151.98 159.95 150.59 159.12 149.55 C 158.29 148.52 157.31 147.79 156.2 147.37 C 155.09 146.94 153.91 146.73 152.67 146.73 C 151.51 146.73 150.35 146.91 149.2 147.26 C 148.04 147.61 146.95 148.05 145.93 148.57 C 144.91 149.08 143.99 149.63 143.16 150.22 C 142.33 150.81 141.63 151.34 141.08 151.81 L 141.08 170.77 Z M 171.61 179.22 L 171.61 176.05 L 176.6 175.63 C 177.11 175.53 177.42 175.4 177.54 175.24 C 177.65 175.08 177.71 174.73 177.71 174.22 L 177.71 148.99 C 177.71 148.19 177.41 147.7 176.81 147.51 L 172.78 146.17 L 173.34 143.21 L 182.36 143.21 L 182.36 174.22 C 182.36 174.78 182.42 175.13 182.53 175.28 C 182.65 175.42 182.96 175.53 183.47 175.63 L 188.33 176.12 L 188.33 179.22 L 171.61 179.22 Z M 182.85 130.74 C 182.85 131.96 182.52 132.89 181.88 133.52 C 181.23 134.15 180.3 134.47 179.1 134.47 C 177.9 134.47 176.97 134.15 176.32 133.52 C 175.68 132.89 175.35 131.96 175.35 130.74 C 175.35 129.51 175.68 128.59 176.32 127.95 C 176.97 127.32 177.9 127 179.1 127 C 180.3 127 181.23 127.32 181.88 127.95 C 182.52 128.59 182.85 129.51 182.85 130.74 Z M 193.05 179.22 L 193.05 176.05 L 196.65 175.63 C 197.16 175.53 197.47 175.4 197.59 175.24 C 197.7 175.08 197.77 174.73 197.77 174.22 L 197.77 148.99 C 197.77 148.19 197.46 147.7 196.86 147.51 L 192.84 146.17 L 193.39 143.21 L 201.3 143.21 L 201.93 147.72 C 202.48 147.15 203.13 146.57 203.87 145.96 C 204.61 145.35 205.43 144.78 206.33 144.27 C 207.23 143.75 208.22 143.33 209.28 143 C 210.35 142.67 211.48 142.5 212.68 142.5 C 213.47 142.5 214.27 142.56 215.08 142.68 C 215.89 142.8 216.61 142.95 217.26 143.14 L 217.26 152.93 L 213.72 152.72 L 212.82 147.37 C 212.77 147.13 212.72 146.97 212.65 146.87 C 212.58 146.78 212.36 146.73 211.99 146.73 C 211.06 146.73 210.13 146.92 209.18 147.3 C 208.23 147.67 207.33 148.13 206.47 148.67 C 205.62 149.21 204.84 149.77 204.15 150.36 C 203.45 150.95 202.87 151.48 202.41 151.95 L 202.41 174.22 C 202.41 174.78 202.47 175.13 202.59 175.28 C 202.7 175.42 203.01 175.53 203.52 175.63 L 209.77 176.12 L 209.77 179.22 L 193.05 179.22 Z M 243.77 179.22 L 243.14 174.5 L 242.93 174.43 C 241.09 176.17 239.14 177.54 237.11 178.55 C 235.07 179.56 232.73 180.07 230.1 180.07 C 227.92 180.07 226.2 179.74 224.93 179.08 C 223.65 178.42 222.68 177.61 222.01 176.65 C 221.34 175.69 220.92 174.66 220.73 173.58 C 220.55 172.5 220.45 171.54 220.45 170.69 C 220.45 167.17 221.51 164.59 223.61 162.94 C 225.72 161.3 228.82 160.29 232.94 159.91 L 242.87 159 L 242.87 155.05 C 242.87 153.55 242.77 152.27 242.59 151.21 C 242.4 150.15 242.02 149.27 241.44 148.57 C 240.86 147.86 240.06 147.34 239.01 147.01 C 237.97 146.69 236.62 146.52 234.96 146.52 C 233.8 146.52 232.72 146.56 231.73 146.63 C 230.73 146.7 229.87 146.91 229.13 147.26 C 228.38 147.61 227.8 148.18 227.36 148.95 C 226.92 149.73 226.7 150.82 226.7 152.23 L 222.26 151.66 C 222.26 149.6 222.68 147.96 223.54 146.73 C 224.4 145.51 225.46 144.58 226.73 143.95 C 228.01 143.31 229.38 142.92 230.86 142.75 C 232.34 142.59 233.73 142.5 235.02 142.5 C 237.38 142.5 239.36 142.7 240.96 143.1 C 242.55 143.5 243.84 144.17 244.81 145.11 C 245.78 146.05 246.47 147.32 246.89 148.92 C 247.31 150.51 247.51 152.51 247.51 154.91 L 247.51 174.22 C 247.51 174.78 247.57 175.13 247.69 175.28 C 247.8 175.42 248.12 175.53 248.62 175.63 L 252.23 176.12 L 252.23 179.22 L 243.77 179.22 Z M 242.87 162.73 L 233.77 163.58 C 230.45 163.91 228.2 164.59 227.04 165.62 C 225.89 166.65 225.31 168.16 225.31 170.13 C 225.31 172.24 225.81 173.77 226.8 174.71 C 227.8 175.65 229.2 176.12 231 176.12 C 232.2 176.12 233.37 175.93 234.5 175.56 C 235.64 175.18 236.73 174.69 237.77 174.08 C 238.81 173.47 239.75 172.76 240.61 171.96 C 241.47 171.16 242.22 170.34 242.87 169.5 L 242.87 162.73 L 242.87 162.73 Z M 242.87 162.73" />
    <path fill="#beff21" fill-rule="evenodd" d="M 115.55 41.68 C 63.26 -11.86 0 1.77 0 1.77 C 0 1.77 52.95 -3.31 95.6 29.84 C 132.06 59.34 126.19 81.93 123.95 88.84 C 121.81 95.42 117.66 101.14 112.29 105.34 C 109.29 107.69 105.69 109.56 101.79 111.04 C 101.74 110.62 101.68 110.2 101.61 109.78 C 100.47 103.02 96.68 97.06 92.31 92 C 87.74 86.72 82.33 82.16 76.7 78.11 C 71.19 74.15 65.33 70.82 59.03 68.34 C 52.53 65.78 45.66 64.12 38.71 63.58 C 31.84 63.05 24.62 63.54 18.17 66.19 C 12.13 68.67 6.69 73.55 6.15 80.58 C 5.63 87.48 9.65 93.79 14.02 98.67 C 14.8 99.54 15.61 100.37 16.43 101.2 C 14.54 104.34 13.73 108.09 14.38 112 C 15.47 118.64 19.04 124.18 24.02 128.27 C 34.09 136.55 46.45 140.82 59.32 141.19 C 62.38 141.28 65.58 141.16 68.8 140.8 C 68.15 142.02 67.37 143.17 66.57 144.27 C 67.43 143.16 68.23 141.99 68.96 140.78 C 69.13 140.76 69.31 140.74 69.48 140.71 C 69.08 141.4 68.65 142.08 68.21 142.74 C 67.92 143.15 67.64 143.56 67.34 143.96 C 66.94 144.5 66.83 144.48 67.36 144.91 C 67.42 144.96 67.35 145.12 67.19 145.35 C 68.39 143.84 69.49 142.26 70.43 140.58 C 70.73 140.54 71.04 140.5 71.34 140.45 C 70.44 142.09 69.42 143.65 68.29 145.13 C 68.08 145.41 66.6 147.91 66.66 147.96 C 67.18 148.44 71.18 142.08 72.23 140.31 C 72.28 140.3 72.34 140.29 72.4 140.27 C 71.09 142.88 69.44 145.33 67.65 147.56 C 65.53 150.21 63.15 152.65 60.67 154.95 C 60.25 155.34 55.37 159.46 55.55 159.73 C 58.96 157.19 62.43 154.77 65.41 151.69 C 62.16 155.1 58.54 158.14 54.75 160.91 C 52.95 162.23 51.11 163.48 49.24 164.68 C 48.58 165.11 47.92 165.52 47.26 165.93 C 47.01 166.08 45.65 166.68 45.6 167 C 45.61 166.96 47.28 166.3 47.46 166.21 C 48.28 165.79 49.09 165.35 49.89 164.89 C 51.26 164.1 52.61 163.28 53.93 162.42 C 57.44 160.13 60.79 157.58 63.91 154.76 C 68.57 150.54 72.93 145.5 75.52 139.64 C 83.37 137.82 90.83 134.29 96.13 128.32 C 99.08 125 101 120.98 101.66 116.7 C 105.33 115.03 108.83 113.01 112.04 110.57 C 122.67 102.51 146.61 78.63 115.55 41.68 L 115.55 41.68 Z M 71.42 133.63 C 70.33 133.81 69.28 133.97 68.27 134.09 C 61.49 134.94 54.52 134.59 47.85 132.99 C 42.89 131.8 38.18 129.86 33.81 127.2 C 28.6 124.03 23.03 119.79 20.44 114 C 19.01 110.88 17.82 106.59 18.65 103.31 C 22.85 107.13 27.5 110.43 32.39 113.24 C 44.03 119.96 57.73 123.13 71.06 123.02 C 72.16 126.44 72.31 130.05 71.42 133.63 L 71.42 133.63 Z M 67.27 115.91 C 54.2 115.35 41.23 111.32 30.34 103.84 C 27.92 102.18 25.62 100.34 23.43 98.37 C 26.59 96.92 30.27 96.54 33.66 96.78 C 37.97 97.07 42.57 98.68 47 100.85 C 51.25 102.48 55.22 104.85 58.85 107.64 C 61.94 110.03 64.89 112.75 67.27 115.91 L 67.27 115.91 Z M 61.3 108.37 C 63.97 110.55 66.5 113.11 68.52 115.96 C 68.31 115.96 68.1 115.95 67.89 115.94 C 67.69 115.68 67.5 115.42 67.3 115.17 C 66.21 113.79 65.04 112.49 63.79 111.25 C 63.16 110.63 62.51 110.02 61.85 109.43 C 61.52 109.13 60.72 108.78 61.3 108.37 L 61.3 108.37 Z M 72.66 132.82 C 72.62 133.03 72.56 133.23 72.51 133.44 C 72.34 133.47 72.18 133.5 72.02 133.53 C 72.72 130.66 72.84 127.67 72.12 124.65 C 71.99 124.09 71.82 123.55 71.65 123.02 C 71.8 123.02 71.95 123.02 72.1 123.01 C 73.07 126.09 73.37 129.38 72.66 132.82 L 72.66 132.82 Z M 74.9 132.97 C 74.89 132.97 74.88 132.97 74.86 132.97 C 75.17 131.39 75.31 129.78 75.25 128.15 C 75.32 129.79 75.19 131.39 74.9 132.97 L 74.9 132.97 Z M 89.44 127.29 C 86.25 129.55 81.98 131.17 77.66 132.31 C 78.12 128.98 77.85 125.79 77.04 122.77 C 83.58 122.26 90.18 120.99 96.44 118.8 C 95.08 122.2 92.53 125.1 89.44 127.29 L 89.44 127.29 Z M 74.18 115.96 C 70.76 109.99 65.39 104.92 59.82 101.02 C 49.07 93.5 34.45 88.06 22.26 95.39 C 21.86 95.64 21.47 95.9 21.09 96.17 C 20.59 95.67 20.07 95.18 19.59 94.67 C 15.6 90.47 6.63 81 10.63 75.09 C 14.3 69.67 22.29 68.3 28.24 67.98 C 35.27 67.6 45.87 70.88 52.57 73.02 C 65.33 77.08 79.09 85.13 88.28 94.99 C 92.52 99.55 96.59 105.23 97.37 111.65 C 97.41 111.94 97.43 112.23 97.44 112.52 C 89.89 114.75 81.58 115.75 74.18 115.96 Z M 58.87 153.7 C 61.67 151.39 64.39 148.8 66.75 145.92 C 64.87 148.14 59.41 153.25 58.87 153.7 Z M 67.19 145.35 C 67.04 145.54 66.9 145.74 66.75 145.92 C 66.93 145.7 67.08 145.51 67.19 145.35 Z M 47.49 101.09 C 52.28 103.5 56.85 106.54 60.57 109.28 C 56.61 105.96 52.23 103.1 47.49 101.09 Z M 47.49 101.09 C 47.32 101.01 47.16 100.93 47 100.85 C 46.51 100.66 46.01 100.48 45.51 100.31 C 46.18 100.56 46.84 100.82 47.49 101.09 Z M 47.49 101.09" />
</svg>